<svg id="svg-blocks" viewBox="0 0 24 25" fill="none" xmlns="http://www.w3.org/2000/svg">
<path d="M10 21.5V8.5C10 8.23478 9.89464 7.98043 9.70711 7.79289C9.51957 7.60536 9.26522 7.5 9 7.5H4C3.73478 7.5 3.48043 7.60536 3.29289 7.79289C3.10536 7.98043 3 8.23478 3 8.5V20.5C3 20.7652 3.10536 21.0196 3.29289 21.2071C3.48043 21.3946 3.73478 21.5 4 21.5H16C16.2652 21.5 16.5196 21.3946 16.7071 21.2071C16.8946 21.0196 17 20.7652 17 20.5V15.5C17 15.2348 16.8946 14.9804 16.7071 14.7929C16.5196 14.6054 16.2652 14.5 16 14.5H3" fill="currentColor"/>
<path d="M10 21.5V8.5C10 8.23478 9.89464 7.98043 9.70711 7.79289C9.51957 7.60536 9.26522 7.5 9 7.5H4C3.73478 7.5 3.48043 7.60536 3.29289 7.79289C3.10536 7.98043 3 8.23478 3 8.5V20.5C3 20.7652 3.10536 21.0196 3.29289 21.2071C3.48043 21.3946 3.73478 21.5 4 21.5H16C16.2652 21.5 16.5196 21.3946 16.7071 21.2071C16.8946 21.0196 17 20.7652 17 20.5V15.5C17 15.2348 16.8946 14.9804 16.7071 14.7929C16.5196 14.6054 16.2652 14.5 16 14.5H3" stroke="currentColor" stroke-linecap="round" stroke-linejoin="round"/>
<path d="M20 3.5H15C14.4477 3.5 14 3.94772 14 4.5V9.5C14 10.0523 14.4477 10.5 15 10.5H20C20.5523 10.5 21 10.0523 21 9.5V4.5C21 3.94772 20.5523 3.5 20 3.5Z" fill="currentColor" stroke="currentColor" stroke-linecap="round" stroke-linejoin="round"/>
</svg>
