<svg id="svg-calendar" viewBox="0 0 25 25" fill="currentColor" xmlns="http://www.w3.org/2000/svg">
<path d="M21.5 20.5C21.5 21.6046 20.6046 22.5 19.5 22.5H5.5C4.39543 22.5 3.5 21.6046 3.5 20.5V11.5H21.5V20.5ZM11.5 13.5C10.9477 13.5 10.5 13.9477 10.5 14.5C10.5 15.0523 10.9477 15.5 11.5 15.5V18.5C11.5 19.0523 11.9477 19.5 12.5 19.5C13.0523 19.5 13.5 19.0523 13.5 18.5V14.5C13.5 13.9477 13.0523 13.5 12.5 13.5H11.5ZM19.5 4.5C20.6046 4.5 21.5 5.39543 21.5 6.5V9.5H3.5V6.5C3.5 5.39543 4.39543 4.5 5.5 4.5H7.5V6.5C7.5 7.05228 7.94772 7.5 8.5 7.5C9.05228 7.5 9.5 7.05228 9.5 6.5V4.5H15.5V6.5C15.5 7.05228 15.9477 7.5 16.5 7.5C17.0523 7.5 17.5 7.05228 17.5 6.5V4.5H19.5Z" />
</svg>
