<svg id="svg-dzen-fill" viewBox="0 0 40 41" fill="none" xmlns="http://www.w3.org/2000/svg">
<path d="M19.8883 40.2657H20.0469C27.9438 40.2657 32.5274 39.4706 35.7743 36.3185C39.0848 32.9748 39.8493 28.3601 39.8493 20.4941V20.2716C39.8493 12.4079 39.0848 7.82414 35.7743 4.44722C32.5298 1.29512 27.913 0.5 20.0492 0.5H19.8907C11.9939 0.5 7.4077 1.29512 4.16095 4.44722C0.850299 7.79101 0.0859375 12.4079 0.0859375 20.2716V20.4941C0.0859375 28.3577 0.850299 32.9417 4.16095 36.3185C7.37695 39.4706 11.9939 40.2657 19.8883 40.2657Z" fill="currentColor"/>
<path d="M35.1162 20.0808C35.1162 19.9294 34.9932 19.804 34.8417 19.7969C29.4067 19.591 26.099 18.8978 23.7849 16.5837C21.466 14.2649 20.7751 10.9547 20.5692 5.50786C20.5645 5.35643 20.4391 5.2334 20.2853 5.2334H19.6512C19.4997 5.2334 19.3743 5.35643 19.3672 5.50786C19.1614 10.9523 18.4705 14.2649 16.1517 16.5837C13.8352 18.9001 10.5298 19.591 5.09477 19.7969C4.94334 19.8016 4.82031 19.927 4.82031 20.0808V20.715C4.82031 20.8664 4.94334 20.9918 5.09477 20.9989C10.5298 21.2047 13.8376 21.898 16.1517 24.2121C18.4657 26.5262 19.1566 29.827 19.3649 35.2523C19.3696 35.4038 19.495 35.5269 19.6488 35.5269H20.2853C20.4367 35.5269 20.5621 35.4038 20.5692 35.2523C20.7774 29.827 21.4684 26.5262 23.7825 24.2121C26.099 21.8956 29.4043 21.2047 34.8393 20.9989C34.9908 20.9942 35.1139 20.8688 35.1139 20.715V20.0808H35.1162Z" fill="white"/>
</svg>
