<svg id="svg-phone" viewBox="0 0 18 19" fill="none" xmlns="http://www.w3.org/2000/svg">
<path d="M16.4981 13.19V15.44C16.499 15.6489 16.4562 15.8556 16.3725 16.047C16.2888 16.2384 16.1661 16.4102 16.0122 16.5514C15.8583 16.6926 15.6765 16.8001 15.4787 16.867C15.2808 16.9339 15.0711 16.9588 14.8631 16.94C12.5552 16.6892 10.3384 15.9006 8.39062 14.6375C6.57849 13.486 5.04212 11.9496 3.89062 10.1375C2.6231 8.1809 1.8343 5.95324 1.58812 3.635C1.56938 3.4276 1.59402 3.21857 1.66049 3.02121C1.72696 2.82386 1.8338 2.64251 1.97419 2.48871C2.11459 2.33491 2.28547 2.21203 2.47596 2.12789C2.66645 2.04375 2.87237 2.00019 3.08062 2H5.33062C5.6946 1.99641 6.04746 2.12531 6.32344 2.36265C6.59942 2.59999 6.77968 2.92958 6.83062 3.29C6.92559 4.01005 7.10171 4.71704 7.35562 5.3975C7.45653 5.66594 7.47837 5.95768 7.41855 6.23816C7.35873 6.51863 7.21977 6.77608 7.01812 6.98L6.06562 7.9325C7.13329 9.81016 8.68796 11.3648 10.5656 12.4325L11.5181 11.48C11.722 11.2783 11.9795 11.1394 12.26 11.0796C12.5404 11.0197 12.8322 11.0416 13.1006 11.1425C13.7811 11.3964 14.4881 11.5725 15.2081 11.6675C15.5724 11.7189 15.9052 11.9024 16.143 12.1831C16.3809 12.4638 16.5072 12.8222 16.4981 13.19Z" fill="currentColor"/>
<path d="M10.5391 5C11.2767 5.14545 11.9536 5.50927 12.4818 6.04423C13.0101 6.57919 13.3654 7.2606 13.5016 8" fill="currentColor"/>
<path d="M10.5391 2C12.0678 2.16108 13.4957 2.8391 14.5867 3.92193C15.6777 5.00477 16.3665 6.42756 16.5391 7.955M10.5391 5C11.2767 5.14545 11.9536 5.50927 12.4818 6.04423C13.0101 6.57919 13.3654 7.2606 13.5016 8" stroke="currentColor" stroke-width="2" stroke-linecap="round" stroke-linejoin="round"/>
</svg>
