<svg id="svg-shield" viewBox="0 0 24 25" fill="currentColor" xmlns="http://www.w3.org/2000/svg">
<path d="M12 1.5C12.5168 1.5 13.0163 1.68483 13.4092 2.02051L13.418 2.02734C15.0575 3.46075 17.3229 4.5 19 4.5C19.5303 4.5 20.039 4.71101 20.4141 5.08594C20.789 5.46091 20.9999 5.96973 21 6.5V13.5C21 16.2641 20.021 18.3893 18.4463 20.0049C16.8988 21.5925 14.8204 22.6446 12.6689 23.3945L12.6611 23.3975C12.233 23.5425 11.7688 23.5373 11.3438 23.3848V23.3857C11.3379 23.3837 11.3321 23.3809 11.3262 23.3789C11.3246 23.3783 11.3228 23.3785 11.3213 23.3779V23.377C9.17204 22.6325 7.09956 21.5851 5.55566 20.0039C4.07782 18.4903 3.12517 16.5283 3.01172 14.0117L3 13.5V6.5C3.00012 5.96973 3.21097 5.4609 3.58594 5.08594C3.96099 4.71101 4.46967 4.5 5 4.5L5.32129 4.48828C6.95847 4.36776 9.05353 3.36257 10.582 2.02734L10.5908 2.02051C10.9837 1.68483 11.4832 1.5 12 1.5ZM15.707 9.79297C15.3165 9.40244 14.6835 9.40244 14.293 9.79297L11 13.0859L9.70703 11.793L9.63086 11.7246C9.23809 11.4043 8.65908 11.4269 8.29297 11.793C7.90244 12.1835 7.90244 12.8165 8.29297 13.207L10.293 15.207C10.6835 15.5976 11.3165 15.5976 11.707 15.207L15.707 11.207C16.0976 10.8165 16.0976 10.1835 15.707 9.79297Z" />
</svg>
