<svg id="svg-telegram" viewBox="0 0 20 20" fill="currentColor" xmlns="http://www.w3.org/2000/svg">
<path fill-rule="evenodd" clip-rule="evenodd" d="M2.20206 9.21044C6.86613 7.16524 9.98382 5.84334 11.5551 5.19486C15.9947 3.34918 16.9176 3.02494 17.5162 3C17.6409 3 17.9402 3.02494 18.1397 3.17459C18.2894 3.2993 18.3392 3.47389 18.3642 3.5986C18.3891 3.72331 18.4141 3.99766 18.3891 4.22214C18.1397 6.74123 17.1171 12.9018 16.5684 15.7202C16.3439 16.9174 15.895 17.3164 15.471 17.3663C14.5481 17.4412 13.8248 16.7428 12.9269 16.1691C11.5302 15.2463 10.7321 14.6726 9.36028 13.7747C7.78896 12.7272 8.81157 12.1535 9.70946 11.2307C9.93394 10.9813 14.0493 7.265 14.1241 6.91582C14.1241 6.86594 14.1491 6.71629 14.0493 6.64147C13.9495 6.56664 13.8248 6.59158 13.7251 6.61652C13.5754 6.64147 11.3307 8.13796 6.96589 11.0811C6.31741 11.53 5.74376 11.7295 5.21999 11.7295C4.64633 11.7295 3.5489 11.4053 2.72583 11.1309C1.72817 10.8067 0.93004 10.6321 1.00486 10.0834C1.05475 9.80904 1.45381 9.50974 2.20206 9.21044Z" />
</svg>
