<svg id="svg-truck" viewBox="0 0 24 24" fill="currentColor" xmlns="http://www.w3.org/2000/svg">
<path d="M12 3C12.7956 3 13.5585 3.3163 14.1211 3.87891C14.6837 4.44152 15 5.20435 15 6V7H17.5215C17.8211 7.00044 18.1168 7.06819 18.3867 7.19824C18.6563 7.32817 18.8932 7.51733 19.0801 7.75098L22.5596 12.1006L22.6602 12.2373C22.8801 12.5649 22.9993 12.9516 23 13.3486V17C23 17.5304 22.7891 18.039 22.4141 18.4141C22.039 18.7891 21.5304 19 21 19H19.29C19.424 18.6936 19.5 18.3558 19.5 18C19.5 16.6193 18.3807 15.5 17 15.5C15.6193 15.5 14.5 16.6193 14.5 18C14.5 18.3558 14.576 18.6936 14.71 19H9.29004C9.42403 18.6936 9.5 18.3558 9.5 18C9.5 16.6193 8.38071 15.5 7 15.5C5.61929 15.5 4.5 16.6193 4.5 18C4.5 18.3558 4.57597 18.6936 4.70996 19H3C2.46957 19 1.96101 18.7891 1.58594 18.4141C1.21086 18.039 1 17.5304 1 17V6C1 5.20435 1.3163 4.44152 1.87891 3.87891C2.44152 3.3163 3.20435 3 4 3H12ZM7 16.5C7.82843 16.5 8.5 17.1716 8.5 18C8.5 18.3849 8.3535 18.7345 8.11523 19H5.88477C5.6465 18.7345 5.5 18.3849 5.5 18C5.5 17.1716 6.17157 16.5 7 16.5ZM17 16.5C17.8284 16.5 18.5 17.1716 18.5 18C18.5 18.3849 18.3535 18.7345 18.1152 19H15.8848C15.6465 18.7345 15.5 18.3849 15.5 18C15.5 17.1716 16.1716 16.5 17 16.5ZM15 9V13H21V12.5C21 12.1362 19.3588 10.3666 18.3154 9.29688C18.1293 9.10613 17.8739 9 17.6074 9H15Z" />
</svg>
