<svg id="svg-vk-fill" viewBox="0 0 40 41" fill="none" xmlns="http://www.w3.org/2000/svg">
<path d="M19.8883 40.2657H20.0469C27.9438 40.2657 32.5274 39.4706 35.7743 36.3185C39.0848 32.9748 39.8493 28.3601 39.8493 20.4941V20.2716C39.8493 12.4079 39.0848 7.82414 35.7743 4.44722C32.5298 1.29512 27.913 0.5 20.0492 0.5H19.8907C11.9939 0.5 7.4077 1.29512 4.16095 4.44722C0.850299 7.79101 0.0859375 12.4079 0.0859375 20.2716V20.4941C0.0859375 28.3577 0.850299 32.9417 4.16095 36.3185C7.37695 39.4706 11.9939 40.2657 19.8883 40.2657Z" fill="currentColor"/>
<path fill-rule="evenodd" clip-rule="evenodd" d="M31.7525 14.0099C31.9307 13.4159 31.7525 13 30.9208 13H28.1485C27.4356 13 27.1188 13.3763 26.9406 13.7921C26.9406 13.7921 25.5346 17.2377 23.5346 19.4555C22.8812 20.1089 22.6039 20.307 22.2475 20.307C22.0693 20.307 21.8119 20.1089 21.8119 19.5149V14.0099C21.8119 13.2971 21.6138 13 21.0198 13H16.6634C16.2277 13 15.9505 13.3367 15.9505 13.6337C15.9505 14.307 16.9406 14.4654 17.0594 16.3268V20.406C17.0594 21.2971 16.901 21.4555 16.5445 21.4555C15.6138 21.4555 13.3168 18.0099 11.9703 14.0495C11.6931 13.3169 11.4356 13 10.7228 13H7.95049C7.15841 13 7 13.3763 7 13.7921C7 14.5248 7.93069 18.1684 11.3762 22.9802C13.6733 26.2674 16.901 28.0495 19.8317 28.0495C21.594 28.0495 21.8119 27.6535 21.8119 26.9802V24.4852C21.8119 23.6931 21.9703 23.5347 22.5445 23.5347C22.9604 23.5347 23.6535 23.7327 25.297 25.3169C27.1782 27.1981 27.495 28.0495 28.5445 28.0495H31.3168C32.1089 28.0495 32.5049 27.6535 32.2673 26.8812C32.0099 26.1089 31.1188 24.9802 29.9307 23.6337C29.2772 22.8614 28.3069 22.0495 28.0297 21.6337C27.6138 21.099 27.7327 20.8614 28.0297 20.406C28.0297 20.3862 31.4158 15.6337 31.7525 14.0099Z" fill="#FCFCFC"/>
</svg>
