<svg id="svg-zap" viewBox="0 0 24 25" fill="currentColor" xmlns="http://www.w3.org/2000/svg">
<path d="M3.9995 14.4997C3.81027 14.5003 3.62474 14.4473 3.46446 14.3467C3.30418 14.246 3.17574 14.102 3.09405 13.9313C3.01237 13.7606 2.9808 13.5703 3.003 13.3823C3.02521 13.1944 3.10028 13.0166 3.2195 12.8697L13.1195 2.66967C13.1938 2.58396 13.295 2.52603 13.4065 2.50541C13.518 2.48478 13.6332 2.50269 13.7332 2.55618C13.8332 2.60967 13.9121 2.69557 13.9568 2.79978C14.0016 2.90399 14.0096 3.02032 13.9795 3.12967L12.0595 9.14967C12.0029 9.3012 11.9839 9.46419 12.0041 9.62468C12.0243 9.78517 12.0832 9.93836 12.1756 10.0711C12.268 10.2038 12.3913 10.3122 12.5348 10.3868C12.6783 10.4615 12.8377 10.5002 12.9995 10.4997H19.9995C20.1887 10.499 20.3743 10.5521 20.5345 10.6527C20.6948 10.7533 20.8233 10.8973 20.905 11.068C20.9866 11.2387 21.0182 11.4291 20.996 11.617C20.9738 11.8049 20.8987 11.9827 20.7795 12.1297L10.8795 22.3297C10.8052 22.4154 10.704 22.4733 10.5925 22.4939C10.481 22.5146 10.3658 22.4967 10.2658 22.4432C10.1658 22.3897 10.0869 22.3038 10.0422 22.1996C9.99742 22.0954 9.98943 21.979 10.0195 21.8697L11.9395 15.8497C11.9961 15.6982 12.0151 15.5352 11.9949 15.3747C11.9747 15.2142 11.9158 15.061 11.8234 14.9282C11.731 14.7955 11.6077 14.6872 11.4642 14.6125C11.3207 14.5379 11.1613 14.4991 10.9995 14.4997H3.9995Z" />
</svg>
