<svg id='svg-email' viewBox="0 0 14 14" fill="currentColor" xmlns="http://www.w3.org/2000/svg">
<path d="M13.6654 4.54666V11C13.6654 11.3536 13.5249 11.6928 13.2748 11.9428C13.0248 12.1929 12.6857 12.3333 12.332 12.3333H1.66536C1.31174 12.3333 0.972604 12.1929 0.722556 11.9428C0.472507 11.6928 0.332031 11.3536 0.332031 11V4.79333L1.66536 5.51999L6.52203 8.16791C6.62031 8.22096 6.79003 8.33333 6.9987 8.33333C7.20736 8.33333 7.38733 8.20887 7.48828 8.14895L12.332 5.32666L13.6654 4.54666Z" />
<path d="M13.6654 2.99999L12.332 3.78666L7.33594 6.70541C7 6.89936 7 6.92186 6.62509 6.70541L2.5 4.5L0.332031 3.26666V2.99999C0.332031 2.64637 0.472507 2.30723 0.722556 2.05718C0.972604 1.80713 1.31174 1.66666 1.66536 1.66666H12.332C12.6857 1.66666 13.0248 1.80713 13.2748 2.05718C13.5249 2.30723 13.6654 2.64637 13.6654 2.99999Z" />
</svg>
