<svg id="svg-file" viewBox="0 0 24 24" fill="currentColor" xmlns="http://www.w3.org/2000/svg">
<path d="M12.9971 6C12.9971 6.71484 13.2941 7.53502 13.8682 8.11328C14.4734 8.72281 15.294 9 15.9971 9H18.9951L19 20.001C19.0005 20.0136 19.0111 20.354 18.7734 20.6377C18.4375 21.0281 18 21.001 18 21.001H6C5.99261 21.0012 5.57932 21.0136 5.28125 20.7002C5.04664 20.4597 5.00579 20.1859 5 20.0645V3.98047C5.0144 3.71185 5.08581 3.50619 5.33203 3.25293C5.53533 3.07754 5.73885 3.01001 6 3H12.9971V6ZM7.99707 16C7.49707 16 7.00928 16.3826 6.99707 17C6.98533 17.5938 7.49707 18 7.99707 18H15.9971C16.4969 17.9998 16.9893 17.6014 16.9971 17C17.0049 16.3986 16.4969 16.0002 15.9971 16H7.99707ZM7.99707 12C7.49723 12 7.00928 12.3826 6.99707 13C6.98534 13.5938 7.49723 14 7.99707 14H15.9971C16.4968 13.9998 16.9893 13.6014 16.9971 13C17.0049 12.3986 16.4968 12.0002 15.9971 12H7.99707ZM7.99707 8C7.49721 8 7.00928 8.38259 6.99707 9C6.98534 9.59375 7.4972 10 7.99707 10H9.99707C10.4968 9.99976 10.9893 9.60138 10.9971 9C11.0049 8.39862 10.4968 8.00024 9.99707 8H7.99707ZM18.6006 7H15.9971C15.415 6.99219 15.0166 6.54687 14.9971 6V3.37402L18.6006 7Z" />
</svg>
