<svg id="svg-location" viewBox="0 0 16 16" fill="currentColor" xmlns="http://www.w3.org/2000/svg">
<path d="M8.00098 1.33398C9.41546 1.33398 10.7723 1.89629 11.7725 2.89648C12.7725 3.89659 13.3349 5.2527 13.335 6.66699C13.335 9.99542 9.64261 13.4623 8.40234 14.5332C8.28683 14.6201 8.14551 14.667 8.00098 14.667C7.85656 14.6669 7.71602 14.62 7.60059 14.5332C6.3605 13.4625 2.66797 9.99558 2.66797 6.66699C2.66805 5.25262 3.23035 3.8966 4.23047 2.89648C5.23059 1.89637 6.58661 1.33407 8.00098 1.33398ZM8 4.66602C6.89543 4.66602 6 5.56145 6 6.66602C6 7.77059 6.89543 8.66602 8 8.66602C9.10457 8.66602 10 7.77059 10 6.66602C10 5.56145 9.10457 4.66602 8 4.66602Z" />
</svg>
