<svg id="svg-square-check" viewBox="0 0 24 25" fill="none" xmlns="http://www.w3.org/2000/svg">
<path d="M19 3.5H5C3.89543 3.5 3 4.39543 3 5.5V19.5C3 20.6046 3.89543 21.5 5 21.5H19C20.1046 21.5 21 20.6046 21 19.5V5.5C21 4.39543 20.1046 3.5 19 3.5Z" fill="currentColor"/>
<path d="M9 12.5L11 14.5L15 10.5" fill="currentColor"/>
<path d="M9 12.5L11 14.5L15 10.5M5 3.5H19C20.1046 3.5 21 4.39543 21 5.5V19.5C21 20.6046 20.1046 21.5 19 21.5H5C3.89543 21.5 3 20.6046 3 19.5V5.5C3 4.39543 3.89543 3.5 5 3.5Z" stroke="white" stroke-width="2" stroke-linecap="round" stroke-linejoin="round"/>
</svg>
