<svg id="svg-tag" viewBox="0 0 24 25" fill="none" xmlns="http://www.w3.org/2000/svg">
<path d="M12.586 3.086C12.211 2.7109 11.7024 2.50011 11.172 2.5H4C3.46957 2.5 2.96086 2.71071 2.58579 3.08579C2.21071 3.46086 2 3.96957 2 4.5V11.672C2.00011 12.2024 2.2109 12.711 2.586 13.086L11.29 21.79C11.7445 22.2416 12.3592 22.4951 13 22.4951C13.6408 22.4951 14.2555 22.2416 14.71 21.79L21.29 15.21C21.7416 14.7555 21.9951 14.1408 21.9951 13.5C21.9951 12.8592 21.7416 12.2445 21.29 11.79L12.586 3.086Z" fill="currentColor"/>
<path d="M7.5 8.5C7.77614 8.5 8 8.27614 8 8C8 7.72386 7.77614 7.5 7.5 7.5C7.22386 7.5 7 7.72386 7 8C7 8.27614 7.22386 8.5 7.5 8.5Z" fill="currentColor"/>
<path d="M12.586 3.086C12.211 2.7109 11.7024 2.50011 11.172 2.5H4C3.46957 2.5 2.96086 2.71071 2.58579 3.08579C2.21071 3.46086 2 3.96957 2 4.5V11.672C2.00011 12.2024 2.2109 12.711 2.586 13.086L11.29 21.79C11.7445 22.2416 12.3592 22.4951 13 22.4951C13.6408 22.4951 14.2555 22.2416 14.71 21.79L21.29 15.21C21.7416 14.7555 21.9951 14.1408 21.9951 13.5C21.9951 12.8592 21.7416 12.2445 21.29 11.79L12.586 3.086Z" stroke="white" stroke-width="2" stroke-linecap="round" stroke-linejoin="round"/>
<path d="M7.5 8.5C7.77614 8.5 8 8.27614 8 8C8 7.72386 7.77614 7.5 7.5 7.5C7.22386 7.5 7 7.72386 7 8C7 8.27614 7.22386 8.5 7.5 8.5Z" stroke="white" stroke-width="2" stroke-linecap="round" stroke-linejoin="round"/>
</svg>
