<svg id="svg-whatsapp" viewBox="0 0 20 20" fill="currentColor" xmlns="http://www.w3.org/2000/svg">
<path d="M10.0332 2C12.1643 2.00076 14.1651 2.82662 15.6689 4.3252C17.1731 5.82375 18.0008 7.81608 18 9.93457C17.9983 14.3058 14.4237 17.8623 10.0332 17.8623H10.0303C8.69721 17.8619 7.3871 17.5292 6.22363 16.8975L2 18L3.12988 13.8916C2.43275 12.6895 2.06564 11.3252 2.06641 9.92773C2.06795 5.55647 5.64206 2.00021 10.0332 2ZM7.42773 6.26758C7.30491 6.26758 7.10522 6.31718 6.93652 6.51562C6.76769 6.71416 6.29297 7.19355 6.29297 8.16797C6.29297 9.13878 6.94672 10.0776 7.04297 10.2158L7.04395 10.2178C7.13726 10.3521 8.34186 12.351 10.1855 13.209C10.6242 13.4131 10.9672 13.5347 11.2344 13.626C11.6747 13.7768 12.0757 13.756 12.3926 13.7051C12.7459 13.6481 13.4806 13.2254 13.6338 12.7627C13.7868 12.3004 13.787 11.9042 13.7412 11.8213C13.6954 11.7389 13.5733 11.6879 13.3896 11.5889C13.2059 11.4897 12.3025 11.011 12.1328 10.9443C11.9641 10.8782 11.8412 10.8455 11.7188 11.0439C11.5961 11.2426 11.244 11.6884 11.1367 11.8203C11.0294 11.9526 10.9221 11.9683 10.7383 11.8691C10.5544 11.7699 9.96143 11.5614 9.25879 10.8867C8.71209 10.3613 8.34261 9.71214 8.23535 9.51367C8.1284 9.31551 8.22473 9.20874 8.31641 9.11035C8.39899 9.0214 8.49969 8.87826 8.5918 8.7627C8.68387 8.64721 8.71408 8.5644 8.77539 8.43262C8.83674 8.3005 8.80651 8.1851 8.76074 8.08594C8.71483 7.98673 8.3469 7.01075 8.19336 6.61426C8.04427 6.22891 7.8928 6.28073 7.78027 6.27441C7.6731 6.26872 7.55041 6.26758 7.42773 6.26758Z" />
</svg>
