<svg width="523" height="720" viewBox="0 0 523 720" fill="none" xmlns="http://www.w3.org/2000/svg">
<g clip-path="url(#clip0_4023_472)">
<path d="M186.5 59L204.5 20L261.5 -1L334 6L366 49.5L377 104.5L373.5 160.5L362 188L360.5 216L373.5 236.5L419 254.5L474.5 291.5L507.5 372.5L518 437L523 540.5L496.5 640L459 648.5L469 721H261.5H96.5L71 658L13 617.5L-0.5 540.5L4.5 428.5L28 364L66 314.5L104 279.5L146.5 265.5L174.5 246L193.5 216L79 188L71 130.5L128 73.5L186.5 59Z" fill="#D9D9D9" fill-opacity="0.01"/>
</g>
<defs>
<clipPath id="clip0_4023_472">
<rect width="523" height="722" fill="white"/>
</clipPath>
</defs>
</svg>
